<?xml version="1.0" encoding="UTF-8"?>
<svg version="1.1" xmlns="http://www.w3.org/2000/svg" width="293" height="72">
<path d="M0 0 C16.5 0 33 0 50 0 C50 3.96 50 7.92 50 12 C40.1 12.495 40.1 12.495 30 13 C30 13.99 30 14.98 30 16 C32.97 16 35.94 16 39 16 C39 20.62 39 25.24 39 30 C35.7 30 32.4 30 29 30 C29 36.27 29 42.54 29 49 C21.78114399 49.15721646 15.00198025 48.61108821 7.875 47.5 C6.91851562 47.35691406 5.96203125 47.21382812 4.9765625 47.06640625 C2.64997784 46.71741855 0.32460844 46.36187667 -2 46 C-2 45.34 -2 44.68 -2 44 C0.64 43.67 3.28 43.34 6 43 C3.69 42.67 1.38 42.34 -1 42 C-1 41.34 -1 40.68 -1 40 C0.65 39.34 2.3 38.68 4 38 C2.35 37.67 0.7 37.34 -1 37 C-1 36.34 -1 35.68 -1 35 C1.475 34.505 1.475 34.505 4 34 C2.35 33.67 0.7 33.34 -1 33 C-1 32.34 -1 31.68 -1 31 C0.98 30.67 2.96 30.34 5 30 C3.02 29.34 1.04 28.68 -1 28 C-1 27.34 -1 26.68 -1 26 C1.97 26 4.94 26 8 26 C8 25.34 8 24.68 8 24 C5.03 24 2.06 24 -1 24 C-1 23.34 -1 22.68 -1 22 C1.31 21.34 3.62 20.68 6 20 C3.69 19.67 1.38 19.34 -1 19 C-1 18.34 -1 17.68 -1 17 C0.32 16.67 1.64 16.34 3 16 C1.68 15.67 0.36 15.34 -1 15 C-1 14.34 -1 13.68 -1 13 C0.98 12.34 2.96 11.68 5 11 C2.03 10.505 2.03 10.505 -1 10 C-1 9.34 -1 8.68 -1 8 C0.65 7.67 2.3 7.34 4 7 C2.68 6.67 1.36 6.34 0 6 C0 5.34 0 4.68 0 4 C3.465 3.505 3.465 3.505 7 3 C4.69 2.34 2.38 1.68 0 1 C0 0.67 0 0.34 0 0 Z " fill="#E00B25" transform="translate(146,0)"/>
<path d="M0 0 C4.05664947 -0.0990914 8.1128277 -0.17157106 12.17041016 -0.21972656 C13.5497668 -0.23980642 14.92903869 -0.26707666 16.30810547 -0.30175781 C18.29356979 -0.35042817 20.27966254 -0.37086418 22.265625 -0.390625 C23.45961914 -0.41157227 24.65361328 -0.43251953 25.88378906 -0.45410156 C29 0 29 0 31.38769531 1.46191406 C33.78623752 5.23769311 33.57347649 8.61012552 33.53125 13 C33.5350769 13.87269531 33.53890381 14.74539063 33.54284668 15.64453125 C33.5455649 17.48699092 33.53820994 19.32948924 33.52148438 21.171875 C33.50007248 23.99045934 33.52128801 26.80649485 33.546875 29.625 C33.54423171 31.41667229 33.53910669 33.20834299 33.53125 35 C33.53934692 35.84175781 33.54744385 36.68351562 33.55578613 37.55078125 C33.46257347 43.37344545 33.46257347 43.37344545 31.15429688 46.5 C27.37607324 49.13071237 24.28178991 49.11869385 19.80078125 49.09765625 C18.59228516 49.09443359 17.38378906 49.09121094 16.13867188 49.08789062 C14.2447168 49.07532227 14.2447168 49.07532227 12.3125 49.0625 C10.40114258 49.05573242 10.40114258 49.05573242 8.45117188 49.04882812 C5.30073436 49.03702873 2.15039051 49.02056597 -1 49 C-1.18533778 32.64908956 -0.61149705 16.33640403 0 0 Z M12 7 C11.67 18.55 11.34 30.1 11 42 C14.3 42 17.6 42 21 42 C20.505 24.675 20.505 24.675 20 7 C17.36 7 14.72 7 12 7 Z " fill="#3F8FD7" transform="translate(77,0)"/>
<path d="M0 0 C7.05375 -0.1546875 7.05375 -0.1546875 14.25 -0.3125 C15.72758789 -0.35802002 17.20517578 -0.40354004 18.72753906 -0.45043945 C19.89510742 -0.46292725 21.06267578 -0.47541504 22.265625 -0.48828125 C24.05661621 -0.52755737 24.05661621 -0.52755737 25.88378906 -0.56762695 C29 -0 29 -0 31.33886719 2.38598633 C34.36108261 7.14184472 35.44354405 10.18297321 34.55859375 15.9296875 C33.632428 19.36232979 31.92255648 22.02313835 30 25 C30.48895752 25.39421143 30.97791504 25.78842285 31.48168945 26.19458008 C33.46567789 28.55373662 33.348426 29.83656999 33.29296875 32.88671875 C33.2784668 34.2934082 33.2784668 34.2934082 33.26367188 35.72851562 C33.23853516 36.70498047 33.21339844 37.68144531 33.1875 38.6875 C33.16719727 40.16959961 33.16719727 40.16959961 33.14648438 41.68164062 C33.11112661 44.12132617 33.05731962 46.56073163 33 49 C29.04 49 25.08 49 21 49 C21 41.74 21 34.48 21 27 C18.03 27 15.06 27 12 27 C12 34.26 12 41.52 12 49 C8.04 49 4.08 49 0 49 C0 32.83 0 16.66 0 0 Z M12 7 C12 11.29 12 15.58 12 20 C14.97 20 17.94 20 21 20 C21 15.71 21 11.42 21 7 C18.03 7 15.06 7 12 7 Z " fill="#DE0B24" transform="translate(224,0)"/>
<path d="M0 0 C1.64548828 -0.00773437 1.64548828 -0.00773437 3.32421875 -0.015625 C4.46503906 -0.00015625 5.60585938 0.0153125 6.78125 0.03125 C8.49248047 0.00804688 8.49248047 0.00804688 10.23828125 -0.015625 C11.33527344 -0.01046875 12.43226562 -0.0053125 13.5625 0 C15.06393555 0.00676758 15.06393555 0.00676758 16.59570312 0.01367188 C19.28125 0.53125 19.28125 0.53125 21.60546875 2.00195312 C24.09597098 5.76092794 23.85500727 9.11218594 23.8125 13.53125 C23.8163269 14.40394531 23.82015381 15.27664063 23.82409668 16.17578125 C23.8268149 18.01824092 23.81945994 19.86073924 23.80273438 21.703125 C23.78132248 24.52170934 23.80253801 27.33774485 23.828125 30.15625 C23.82548171 31.94792229 23.82035669 33.73959299 23.8125 35.53125 C23.82059692 36.37300781 23.82869385 37.21476562 23.83703613 38.08203125 C23.74382347 43.90469545 23.74382347 43.90469545 21.43554688 47.03125 C16.7858806 50.26873296 11.91261539 49.78538118 6.46875 49.84375 C5.13360352 49.88725586 5.13360352 49.88725586 3.77148438 49.93164062 C2.90201172 49.94001953 2.03253906 49.94839844 1.13671875 49.95703125 C0.34934326 49.97161377 -0.43803223 49.98619629 -1.24926758 50.0012207 C-4.98833617 49.28963325 -6.92384866 48.13005284 -9.71875 45.53125 C-10.59053422 42.45901941 -10.513046 39.48830883 -10.4453125 36.3125 C-10.44680801 34.97016296 -10.44680801 34.97016296 -10.44833374 33.60070801 C-10.44365851 31.71109116 -10.42423689 29.8214612 -10.39111328 27.93212891 C-10.34390688 25.04085876 -10.34999239 22.1532765 -10.36328125 19.26171875 C-10.35212728 17.4244572 -10.33790722 15.58721116 -10.3203125 13.75 C-10.32213531 12.88636841 -10.32395813 12.02273682 -10.32583618 11.13293457 C-10.23709452 7.37343841 -10.14373814 5.17447529 -8.03857422 1.98828125 C-5.16311476 0.18226756 -3.38570691 0.01526075 0 0 Z M2.28125 7.53125 C1.95125 19.08125 1.62125 30.63125 1.28125 42.53125 C4.58125 42.53125 7.88125 42.53125 11.28125 42.53125 C11.28125 30.98125 11.28125 19.43125 11.28125 7.53125 C8.31125 7.53125 5.34125 7.53125 2.28125 7.53125 Z " fill="#408FD7" transform="translate(47.71875,-0.53125)"/>
<path d="M0 0 C9.57 0 19.14 0 29 0 C29 1.98 29 3.96 29 6 C28 7 28 7 24.83984375 7.09765625 C22.90818359 7.08025391 22.90818359 7.08025391 20.9375 7.0625 C19.64714844 7.05347656 18.35679687 7.04445313 17.02734375 7.03515625 C16.02832031 7.02355469 15.02929688 7.01195312 14 7 C13.67 11.29 13.34 15.58 13 20 C16.63 20 20.26 20 24 20 C24 22.31 24 24.62 24 27 C20.37 27 16.74 27 13 27 C13 31.95 13 36.9 13 42 C18.28 42 23.56 42 29 42 C29 44.31 29 46.62 29 49 C19.43 49 9.86 49 0 49 C0 32.83 0 16.66 0 0 Z " fill="#DE0B23" transform="translate(264,0)"/>
<path d="M0 0 C1.19496094 -0.00386719 2.38992188 -0.00773438 3.62109375 -0.01171875 C4.87019531 -0.00011719 6.11929687 0.01148437 7.40625 0.0234375 C8.65535156 0.01183594 9.90445312 0.00023438 11.19140625 -0.01171875 C12.98384766 -0.00591797 12.98384766 -0.00591797 14.8125 0 C15.90884766 0.00338379 17.00519531 0.00676758 18.13476562 0.01025391 C20.90625 0.3984375 20.90625 0.3984375 22.76879883 1.7956543 C24.86851447 4.75436501 24.07889055 7.88807962 23.90625 11.3984375 C21.59625 11.3984375 19.28625 11.3984375 16.90625 11.3984375 C16.90625 9.7484375 16.90625 8.0984375 16.90625 6.3984375 C12.28625 6.3984375 7.66625 6.3984375 2.90625 6.3984375 C2.90625 18.2784375 2.90625 30.1584375 2.90625 42.3984375 C7.52625 42.3984375 12.14625 42.3984375 16.90625 42.3984375 C16.90625 40.4184375 16.90625 38.4384375 16.90625 36.3984375 C19.21625 36.3984375 21.52625 36.3984375 23.90625 36.3984375 C23.90625 39.3684375 23.90625 42.3384375 23.90625 45.3984375 C18.22824579 49.25764628 14.1400739 50.00144107 7.34375 49.8359375 C6.51939453 49.84302734 5.69503906 49.85011719 4.84570312 49.85742188 C-0.35879086 49.8033384 -5.1895131 49.3026744 -9.09375 45.3984375 C-9.21979257 42.33101968 -9.28245085 39.28736925 -9.296875 36.21875 C-9.30257507 35.29504608 -9.30827515 34.37134216 -9.31414795 33.41964722 C-9.32361345 31.46092887 -9.33013806 29.50219448 -9.33398438 27.54345703 C-9.3436867 24.54301202 -9.37469401 21.5432527 -9.40625 18.54296875 C-9.41278002 16.64323325 -9.4180305 14.74349283 -9.421875 12.84375 C-9.4342218 11.94367218 -9.4465686 11.04359436 -9.45928955 10.11624146 C-9.4547879 8.86011551 -9.4547879 8.86011551 -9.45019531 7.57861328 C-9.45384094 6.84216583 -9.45748657 6.10571838 -9.46124268 5.34695435 C-8.47237728 0.10379983 -4.62543614 0.01427604 0 0 Z " fill="#3F8ED7" transform="translate(9.09375,-0.3984375)"/>
<path d="M0 0 C9.24 0 18.48 0 28 0 C28 1.98 28 3.96 28 6 C22.72 6 17.44 6 12 6 C12 10.62 12 15.24 12 20 C13.629375 19.979375 15.25875 19.95875 16.9375 19.9375 C18.62499341 19.91613932 20.31391034 19.92794489 22 20 C23 21 23 21 23.0625 24.0625 C23.041875 25.031875 23.02125 26.00125 23 27 C19.37 27 15.74 27 12 27 C12 31.95 12 36.9 12 42 C17.28 42 22.56 42 28 42 C28 44.31 28 46.62 28 49 C18.76 49 9.52 49 0 49 C0 32.83 0 16.66 0 0 Z " fill="#3E8ED6" transform="translate(115,0)"/>
<path d="M0 0 C4.29 0 8.58 0 13 0 C13 16.17 13 32.34 13 49 C8.71 49 4.42 49 0 49 C0 32.83 0 16.66 0 0 Z " fill="#DE0A23" transform="translate(201,0)"/>
<path d="M0 0 C0.05386629 2.12472576 0.09273071 4.24983652 0.125 6.375 C0.14820313 7.55835937 0.17140625 8.74171875 0.1953125 9.9609375 C0 13 0 13 -2 15 C-5.625 15.125 -5.625 15.125 -9 15 C-8.95875 14.236875 -8.9175 13.47375 -8.875 12.6875 C-8.77919176 9.77281584 -8.77919176 9.77281584 -11 7 C-10.84479131 3.89582618 -10.40115522 2.44572802 -8.3125 0.125 C-5.22253149 -1.37822792 -3.30019303 -0.65913568 0 0 Z M-6 3 C-6 4.65 -6 6.3 -6 8 C-5.01 7.67 -4.02 7.34 -3 7 C-3 5.68 -3 4.36 -3 3 C-3.99 3 -4.98 3 -6 3 Z M-8 11 C-8 11.33 -8 11.66 -8 12 C-6.35 12 -4.7 12 -3 12 C-3 11.67 -3 11.34 -3 11 C-4.65 11 -6.3 11 -8 11 Z " fill="#212627" transform="translate(219,57)"/>
<path d="M0 0 C1.32 0 2.64 0 4 0 C4 1.32 4 2.64 4 4 C4.8971875 3.6596875 4.8971875 3.6596875 5.8125 3.3125 C8 3 8 3 9.625 4.15625 C11.4585687 6.61489895 11.30560853 8.15604762 11.1875 11.1875 C11.16042969 12.08855469 11.13335937 12.98960938 11.10546875 13.91796875 C11.07066406 14.60503906 11.03585938 15.29210937 11 16 C10.01 16 9.02 16 8 16 C7.67 13.36 7.34 10.72 7 8 C6.01 7.67 5.02 7.34 4 7 C4 9.97 4 12.94 4 16 C2.68 15.67 1.36 15.34 0 15 C0 10.05 0 5.1 0 0 Z " fill="#212527" transform="translate(78,53)"/>
<path d="M0 0 C2.45331002 3.67996503 2.39507893 5.65413172 2 10 C-1.23253796 12.15502531 -2.25150923 12.46856135 -6 12 C-7.8125 10.9375 -7.8125 10.9375 -9 9 C-9.4375 5.5 -9.4375 5.5 -9 2 C-6.1966047 -1.32254258 -3.99398664 -1.47146876 0 0 Z M-5 7 C-1 8 -1 8 -1 8 Z " fill="#1F262B" transform="translate(35,57)"/>
<path d="M0 0 C2.4375 1.375 2.4375 1.375 3.25 3.6875 C3.4297647 6.26412731 3.51126418 8.79325375 3.4375 11.375 C-2.81992574 12.69868621 -2.81992574 12.69868621 -6 11.3125 C-7.5625 9.375 -7.5625 9.375 -8 6.375 C-7.5625 3.375 -7.5625 3.375 -6.1875 1.5625 C-3.03603224 -0.74049567 -3.03603224 -0.74049567 0 0 Z M-3.5625 7.375 C-3.5625 7.705 -3.5625 8.035 -3.5625 8.375 C-1.9125 8.375 -0.2625 8.375 1.4375 8.375 C1.4375 8.045 1.4375 7.715 1.4375 7.375 C-0.2125 7.375 -1.8625 7.375 -3.5625 7.375 Z " fill="#202426" transform="translate(264.5625,56.625)"/>
<path d="M0 0 C0.9075 0.391875 1.815 0.78375 2.75 1.1875 C3.5 4.4375 3.5 4.4375 3.75 8.1875 C2.1875 10.6875 2.1875 10.6875 -0.25 12.1875 C-3.375 12.1875 -3.375 12.1875 -6.25 11.1875 C-8.15577288 8.86742867 -8.27068737 7.61159109 -8.125 4.625 C-7.25 2.1875 -7.25 2.1875 -5.5625 0.25 C-3.25 -0.8125 -3.25 -0.8125 0 0 Z M-3.25 3.1875 C-3.58 4.5075 -3.91 5.8275 -4.25 7.1875 C-2.93 7.1875 -1.61 7.1875 -0.25 7.1875 C-0.58 5.8675 -0.91 4.5475 -1.25 3.1875 C-1.91 3.1875 -2.57 3.1875 -3.25 3.1875 Z " fill="#222625" transform="translate(189.25,56.8125)"/>
<path d="M0 0 C0.9075 0.391875 1.815 0.78375 2.75 1.1875 C3.5 4.4375 3.5 4.4375 3.75 8.1875 C2.1875 10.6875 2.1875 10.6875 -0.25 12.1875 C-3.375 12.1875 -3.375 12.1875 -6.25 11.1875 C-8.15577288 8.86742867 -8.27068737 7.61159109 -8.125 4.625 C-7.25 2.1875 -7.25 2.1875 -5.5625 0.25 C-3.25 -0.8125 -3.25 -0.8125 0 0 Z M-4.25 3.1875 C-4.25 4.8375 -4.25 6.4875 -4.25 8.1875 C-3.26 8.1875 -2.27 8.1875 -1.25 8.1875 C-0.92 6.8675 -0.59 5.5475 -0.25 4.1875 C-1.57 3.8575 -2.89 3.5275 -4.25 3.1875 Z " fill="#212628" transform="translate(141.25,56.8125)"/>
<path d="M0 0 C3.96 0 7.92 0 12 0 C12 1.32 12 2.64 12 4 C10.68 4 9.36 4 8 4 C8 7.96 8 11.92 8 16 C6.68 16 5.36 16 4 16 C4 12.04 4 8.08 4 4 C2.68 4 1.36 4 0 4 C0 2.68 0 1.36 0 0 Z " fill="#212627" transform="translate(0,53)"/>
<path d="M0 0 C0.05395478 1.62463842 0.09277195 3.24978541 0.125 4.875 C0.14820313 5.77992187 0.17140625 6.68484375 0.1953125 7.6171875 C0 10 0 10 -2 12 C-5.625 11.625 -5.625 11.625 -9 11 C-9.33 10.01 -9.66 9.02 -10 8 C-9.67 7.34 -9.34 6.68 -9 6 C-8.9603287 4.33380554 -8.95615553 2.66608987 -9 1 C-5.64919071 -1.10976881 -3.77897651 -1.0497157 0 0 Z M-7 7 C-3 8 -3 8 -3 8 Z " fill="#202426" transform="translate(293,57)"/>
<path d="M0 0 C2.70341003 2.70341003 2.5 3.65415832 2.5 7.375 C2.41960847 8.98053374 2.3227403 10.58565374 2.1875 12.1875 C0.8675 12.1875 -0.4525 12.1875 -1.8125 12.1875 C-1.8125 9.2175 -1.8125 6.2475 -1.8125 3.1875 C-2.8025 3.1875 -3.7925 3.1875 -4.8125 3.1875 C-4.8125 6.1575 -4.8125 9.1275 -4.8125 12.1875 C-5.8025 12.1875 -6.7925 12.1875 -7.8125 12.1875 C-7.8125 8.2275 -7.8125 4.2675 -7.8125 0.1875 C-2.8125 -0.8125 -2.8125 -0.8125 0 0 Z " fill="#202429" transform="translate(114.8125,56.8125)"/>
<path d="M0 0 C1.3303125 0.4021875 1.3303125 0.4021875 2.6875 0.8125 C2.6875 2.1325 2.6875 3.4525 2.6875 4.8125 C-0.2825 4.3175 -0.2825 4.3175 -3.3125 3.8125 C-3.3125 5.4625 -3.3125 7.1125 -3.3125 8.8125 C-1.3325 8.4825 0.6475 8.1525 2.6875 7.8125 C2.3575 9.1325 2.0275 10.4525 1.6875 11.8125 C-1.125 12.4375 -1.125 12.4375 -4.3125 12.8125 C-7.3125 10.8125 -7.3125 10.8125 -8.3125 8 C-8.3125 4.8125 -8.3125 4.8125 -6.25 1.875 C-3.3125 -0.1875 -3.3125 -0.1875 0 0 Z " fill="#212628" transform="translate(60.3125,56.1875)"/>
<path d="M0 0 C1.32 0 2.64 0 4 0 C4 5.28 4 10.56 4 16 C2.68 16 1.36 16 0 16 C0 10.72 0 5.44 0 0 Z " fill="#23262A" transform="translate(161,53)"/>
<path d="M0 0 C0.99 0 1.98 0 3 0 C3 5.28 3 10.56 3 16 C1.68 15.67 0.36 15.34 -1 15 C-1.02685412 12.68756208 -1.04632841 10.3750373 -1.0625 8.0625 C-1.07410156 6.77472656 -1.08570313 5.48695312 -1.09765625 4.16015625 C-1 1 -1 1 0 0 Z " fill="#232727" transform="translate(237,53)"/>
<path d="M0 0 C0.66 0 1.32 0 2 0 C2.33 1.98 2.66 3.96 3 6 C-2.28 5.34 -7.56 4.68 -13 4 C-13 3.34 -13 2.68 -13 2 C-12.14535156 1.93941406 -11.29070312 1.87882812 -10.41015625 1.81640625 C-8.75306641 1.69072266 -8.75306641 1.69072266 -7.0625 1.5625 C-5.96035156 1.48128906 -4.85820312 1.40007813 -3.72265625 1.31640625 C-1.08890097 1.29581916 -1.08890097 1.29581916 0 0 Z " fill="#CF0932" transform="translate(157,42)"/>
<path d="M0 0 C0.99 0 1.98 0 3 0 C3 1.98 3 3.96 3 6 C1.35 6 -0.3 6 -2 6 C-2 5.34 -2 4.68 -2 4 C-1.34 4 -0.68 4 0 4 C0 2.68 0 1.36 0 0 Z " fill="#6EBCE7" transform="translate(140,0)"/>
<path d="M0 0 C-3.08809695 1.76462683 -4.23312136 2 -8 2 C-8 1.01 -8 0.02 -8 -1 C-3.375 -2.25 -3.375 -2.25 0 0 Z " fill="#1D2A3C" transform="translate(115,58)"/>
<path d="M0 0 C0.66 0 1.32 0 2 0 C2 2.31 2 4.62 2 7 C0.35 7 -1.3 7 -3 7 C-2.505 6.21625 -2.01 5.4325 -1.5 4.625 C0.16537965 2.21447673 0.16537965 2.21447673 0 0 Z " fill="#0D66B4" transform="translate(141,42)"/>
</svg>
